<mxfile host="Electron" modified="2024-05-15T08:39:01.054Z" agent="Mozilla/5.0 (Macintosh; Intel Mac OS X 10_15_7) AppleWebKit/537.36 (KHTML, like Gecko) draw.io/23.1.5 Chrome/120.0.6099.109 Electron/28.1.0 Safari/537.36" etag="ToX5sJqFRUuD36SBcJdt" version="23.1.5" type="device">
  <diagram id="9n6xUkvIiL3uKYTUikx_" name="第 1 页">
    <mxGraphModel dx="1025" dy="854" grid="0" gridSize="10" guides="1" tooltips="1" connect="1" arrows="1" fold="1" page="1" pageScale="1" pageWidth="700" pageHeight="420" math="0" shadow="0">
      <root>
        <mxCell id="0" />
        <mxCell id="1" parent="0" />
        <mxCell id="SEukUoHjLpkUjH1Gkkpn-6" style="edgeStyle=orthogonalEdgeStyle;rounded=0;orthogonalLoop=1;jettySize=auto;html=1;entryX=0;entryY=0.5;entryDx=0;entryDy=0;" parent="1" source="SEukUoHjLpkUjH1Gkkpn-1" target="SEukUoHjLpkUjH1Gkkpn-4" edge="1">
          <mxGeometry relative="1" as="geometry" />
        </mxCell>
        <mxCell id="SEukUoHjLpkUjH1Gkkpn-7" style="edgeStyle=orthogonalEdgeStyle;rounded=0;orthogonalLoop=1;jettySize=auto;html=1;entryX=0;entryY=0.5;entryDx=0;entryDy=0;" parent="1" source="SEukUoHjLpkUjH1Gkkpn-1" target="SEukUoHjLpkUjH1Gkkpn-5" edge="1">
          <mxGeometry relative="1" as="geometry" />
        </mxCell>
        <mxCell id="SEukUoHjLpkUjH1Gkkpn-1" value="FragmentInstance 列表" style="rounded=0;whiteSpace=wrap;html=1;fillColor=#f8cecc;strokeColor=#b85450;" parent="1" vertex="1">
          <mxGeometry x="18" y="176" width="127" height="60" as="geometry" />
        </mxCell>
        <mxCell id="SEukUoHjLpkUjH1Gkkpn-17" style="edgeStyle=orthogonalEdgeStyle;rounded=0;orthogonalLoop=1;jettySize=auto;html=1;entryX=0;entryY=0.5;entryDx=0;entryDy=0;fontSize=16;" parent="1" source="SEukUoHjLpkUjH1Gkkpn-4" target="SEukUoHjLpkUjH1Gkkpn-8" edge="1">
          <mxGeometry relative="1" as="geometry" />
        </mxCell>
        <mxCell id="SEukUoHjLpkUjH1Gkkpn-18" style="edgeStyle=orthogonalEdgeStyle;rounded=0;orthogonalLoop=1;jettySize=auto;html=1;entryX=0;entryY=0.5;entryDx=0;entryDy=0;fontSize=16;" parent="1" source="SEukUoHjLpkUjH1Gkkpn-4" target="SEukUoHjLpkUjH1Gkkpn-9" edge="1">
          <mxGeometry relative="1" as="geometry" />
        </mxCell>
        <mxCell id="SEukUoHjLpkUjH1Gkkpn-19" style="edgeStyle=orthogonalEdgeStyle;rounded=0;orthogonalLoop=1;jettySize=auto;html=1;fontSize=16;" parent="1" source="SEukUoHjLpkUjH1Gkkpn-4" target="SEukUoHjLpkUjH1Gkkpn-10" edge="1">
          <mxGeometry relative="1" as="geometry" />
        </mxCell>
        <mxCell id="SEukUoHjLpkUjH1Gkkpn-20" style="edgeStyle=orthogonalEdgeStyle;rounded=0;orthogonalLoop=1;jettySize=auto;html=1;entryX=0;entryY=0.5;entryDx=0;entryDy=0;fontSize=16;" parent="1" source="SEukUoHjLpkUjH1Gkkpn-4" target="SEukUoHjLpkUjH1Gkkpn-11" edge="1">
          <mxGeometry relative="1" as="geometry" />
        </mxCell>
        <mxCell id="SEukUoHjLpkUjH1Gkkpn-4" value="本地FragmentInstance" style="rounded=0;whiteSpace=wrap;html=1;fillColor=#ffe6cc;strokeColor=#d79b00;" parent="1" vertex="1">
          <mxGeometry x="188" y="60" width="120" height="60" as="geometry" />
        </mxCell>
        <mxCell id="SEukUoHjLpkUjH1Gkkpn-31" style="edgeStyle=orthogonalEdgeStyle;rounded=0;orthogonalLoop=1;jettySize=auto;html=1;entryX=0;entryY=0.5;entryDx=0;entryDy=0;fontSize=12;fontColor=#000000;" parent="1" source="SEukUoHjLpkUjH1Gkkpn-5" target="SEukUoHjLpkUjH1Gkkpn-30" edge="1">
          <mxGeometry relative="1" as="geometry" />
        </mxCell>
        <mxCell id="SEukUoHjLpkUjH1Gkkpn-5" value="远程&lt;br&gt;FragmentInstance" style="rounded=0;whiteSpace=wrap;html=1;fillColor=#e1d5e7;strokeColor=#9673a6;" parent="1" vertex="1">
          <mxGeometry x="188" y="292" width="120" height="60" as="geometry" />
        </mxCell>
        <mxCell id="SEukUoHjLpkUjH1Gkkpn-15" value="" style="group" parent="1" vertex="1" connectable="0">
          <mxGeometry x="348" y="35" width="161" height="141" as="geometry" />
        </mxCell>
        <mxCell id="SEukUoHjLpkUjH1Gkkpn-8" value="写入线程1" style="rounded=0;whiteSpace=wrap;html=1;fillColor=#fff2cc;strokeColor=#d6b656;" parent="SEukUoHjLpkUjH1Gkkpn-15" vertex="1">
          <mxGeometry width="161" height="24" as="geometry" />
        </mxCell>
        <mxCell id="SEukUoHjLpkUjH1Gkkpn-9" value="写入线程2" style="rounded=0;whiteSpace=wrap;html=1;fillColor=#fff2cc;strokeColor=#d6b656;" parent="SEukUoHjLpkUjH1Gkkpn-15" vertex="1">
          <mxGeometry y="29" width="161" height="24" as="geometry" />
        </mxCell>
        <mxCell id="SEukUoHjLpkUjH1Gkkpn-10" value="写入线程3" style="rounded=0;whiteSpace=wrap;html=1;fillColor=#fff2cc;strokeColor=#d6b656;" parent="SEukUoHjLpkUjH1Gkkpn-15" vertex="1">
          <mxGeometry y="58" width="161" height="24" as="geometry" />
        </mxCell>
        <mxCell id="SEukUoHjLpkUjH1Gkkpn-11" value="写入线程4" style="rounded=0;whiteSpace=wrap;html=1;fillColor=#fff2cc;strokeColor=#d6b656;" parent="SEukUoHjLpkUjH1Gkkpn-15" vertex="1">
          <mxGeometry y="87" width="161" height="24" as="geometry" />
        </mxCell>
        <mxCell id="SEukUoHjLpkUjH1Gkkpn-14" value="&lt;font style=&quot;font-size: 16px;&quot;&gt;&lt;b&gt;...&lt;/b&gt;&lt;/font&gt;" style="rounded=0;whiteSpace=wrap;html=1;strokeColor=none;" parent="SEukUoHjLpkUjH1Gkkpn-15" vertex="1">
          <mxGeometry y="116" width="161" height="24" as="geometry" />
        </mxCell>
        <mxCell id="SEukUoHjLpkUjH1Gkkpn-21" value="&lt;font style=&quot;font-size: 12px;&quot;&gt;本地 DataRegion1&lt;/font&gt;" style="rounded=1;whiteSpace=wrap;html=1;fontSize=16;fillColor=#dae8fc;strokeColor=#6c8ebf;" parent="1" vertex="1">
          <mxGeometry x="559" y="36" width="120" height="22" as="geometry" />
        </mxCell>
        <mxCell id="SEukUoHjLpkUjH1Gkkpn-22" style="edgeStyle=orthogonalEdgeStyle;rounded=0;orthogonalLoop=1;jettySize=auto;html=1;fontSize=12;" parent="1" source="SEukUoHjLpkUjH1Gkkpn-8" target="SEukUoHjLpkUjH1Gkkpn-21" edge="1">
          <mxGeometry relative="1" as="geometry" />
        </mxCell>
        <mxCell id="SEukUoHjLpkUjH1Gkkpn-23" value="&lt;font style=&quot;font-size: 12px;&quot;&gt;本地 DataRegion2&lt;/font&gt;" style="rounded=1;whiteSpace=wrap;html=1;fontSize=16;fillColor=#dae8fc;strokeColor=#6c8ebf;" parent="1" vertex="1">
          <mxGeometry x="559" y="65" width="120" height="22" as="geometry" />
        </mxCell>
        <mxCell id="SEukUoHjLpkUjH1Gkkpn-24" style="edgeStyle=orthogonalEdgeStyle;rounded=0;orthogonalLoop=1;jettySize=auto;html=1;entryX=0;entryY=0.5;entryDx=0;entryDy=0;fontSize=12;" parent="1" source="SEukUoHjLpkUjH1Gkkpn-9" target="SEukUoHjLpkUjH1Gkkpn-23" edge="1">
          <mxGeometry relative="1" as="geometry" />
        </mxCell>
        <mxCell id="SEukUoHjLpkUjH1Gkkpn-25" value="&lt;font style=&quot;font-size: 12px;&quot;&gt;本地 DataRegion3&lt;/font&gt;" style="rounded=1;whiteSpace=wrap;html=1;fontSize=16;fillColor=#dae8fc;strokeColor=#6c8ebf;" parent="1" vertex="1">
          <mxGeometry x="559" y="94.5" width="120" height="22" as="geometry" />
        </mxCell>
        <mxCell id="SEukUoHjLpkUjH1Gkkpn-26" style="edgeStyle=orthogonalEdgeStyle;rounded=0;orthogonalLoop=1;jettySize=auto;html=1;fontSize=12;" parent="1" source="SEukUoHjLpkUjH1Gkkpn-10" target="SEukUoHjLpkUjH1Gkkpn-25" edge="1">
          <mxGeometry relative="1" as="geometry" />
        </mxCell>
        <mxCell id="SEukUoHjLpkUjH1Gkkpn-27" value="&lt;font style=&quot;font-size: 12px;&quot;&gt;本地 DataRegion4&lt;/font&gt;" style="rounded=1;whiteSpace=wrap;html=1;fontSize=16;fillColor=#dae8fc;strokeColor=#6c8ebf;" parent="1" vertex="1">
          <mxGeometry x="559" y="123" width="120" height="22" as="geometry" />
        </mxCell>
        <mxCell id="SEukUoHjLpkUjH1Gkkpn-28" style="edgeStyle=orthogonalEdgeStyle;rounded=0;orthogonalLoop=1;jettySize=auto;html=1;fontSize=12;" parent="1" source="SEukUoHjLpkUjH1Gkkpn-11" target="SEukUoHjLpkUjH1Gkkpn-27" edge="1">
          <mxGeometry relative="1" as="geometry" />
        </mxCell>
        <mxCell id="SEukUoHjLpkUjH1Gkkpn-29" value="&lt;b&gt;&lt;font&gt;并行写入&lt;/font&gt;&lt;/b&gt;" style="text;html=1;align=center;verticalAlign=middle;resizable=0;points=[];autosize=1;strokeColor=none;fillColor=none;fontSize=12;fontColor=default;" parent="1" vertex="1">
          <mxGeometry x="293" y="10" width="66" height="26" as="geometry" />
        </mxCell>
        <mxCell id="SEukUoHjLpkUjH1Gkkpn-36" style="edgeStyle=orthogonalEdgeStyle;rounded=0;orthogonalLoop=1;jettySize=auto;html=1;entryX=0;entryY=0.5;entryDx=0;entryDy=0;fontSize=12;fontColor=#000000;" parent="1" source="SEukUoHjLpkUjH1Gkkpn-30" target="SEukUoHjLpkUjH1Gkkpn-32" edge="1">
          <mxGeometry relative="1" as="geometry" />
        </mxCell>
        <mxCell id="SEukUoHjLpkUjH1Gkkpn-37" style="edgeStyle=orthogonalEdgeStyle;rounded=0;orthogonalLoop=1;jettySize=auto;html=1;fontSize=12;fontColor=#000000;" parent="1" source="SEukUoHjLpkUjH1Gkkpn-30" target="SEukUoHjLpkUjH1Gkkpn-33" edge="1">
          <mxGeometry relative="1" as="geometry" />
        </mxCell>
        <mxCell id="SEukUoHjLpkUjH1Gkkpn-38" style="edgeStyle=orthogonalEdgeStyle;rounded=0;orthogonalLoop=1;jettySize=auto;html=1;fontSize=12;fontColor=#000000;" parent="1" source="SEukUoHjLpkUjH1Gkkpn-30" target="SEukUoHjLpkUjH1Gkkpn-34" edge="1">
          <mxGeometry relative="1" as="geometry" />
        </mxCell>
        <mxCell id="SEukUoHjLpkUjH1Gkkpn-39" style="edgeStyle=orthogonalEdgeStyle;rounded=0;orthogonalLoop=1;jettySize=auto;html=1;fontSize=12;fontColor=#000000;" parent="1" source="SEukUoHjLpkUjH1Gkkpn-30" target="SEukUoHjLpkUjH1Gkkpn-35" edge="1">
          <mxGeometry relative="1" as="geometry" />
        </mxCell>
        <mxCell id="SEukUoHjLpkUjH1Gkkpn-30" value="&lt;font color=&quot;#000000&quot;&gt;异步客户端&lt;/font&gt;" style="ellipse;whiteSpace=wrap;html=1;fontSize=12;fillColor=#b0e3e6;strokeColor=#0e8088;" parent="1" vertex="1">
          <mxGeometry x="368.5" y="282" width="120" height="80" as="geometry" />
        </mxCell>
        <mxCell id="SEukUoHjLpkUjH1Gkkpn-32" value="&lt;font style=&quot;font-size: 12px;&quot;&gt;远程 DataRegion1&lt;/font&gt;" style="rounded=1;whiteSpace=wrap;html=1;fontSize=16;fillColor=#dae8fc;strokeColor=#6c8ebf;" parent="1" vertex="1">
          <mxGeometry x="552" y="267.5" width="120" height="22" as="geometry" />
        </mxCell>
        <mxCell id="SEukUoHjLpkUjH1Gkkpn-33" value="&lt;font style=&quot;font-size: 12px;&quot;&gt;远程&amp;nbsp;DataRegion2&lt;/font&gt;" style="rounded=1;whiteSpace=wrap;html=1;fontSize=16;fillColor=#dae8fc;strokeColor=#6c8ebf;" parent="1" vertex="1">
          <mxGeometry x="552" y="296.5" width="120" height="22" as="geometry" />
        </mxCell>
        <mxCell id="SEukUoHjLpkUjH1Gkkpn-34" value="&lt;font style=&quot;font-size: 12px;&quot;&gt;远程&amp;nbsp;DataRegion3&lt;/font&gt;" style="rounded=1;whiteSpace=wrap;html=1;fontSize=16;fillColor=#dae8fc;strokeColor=#6c8ebf;" parent="1" vertex="1">
          <mxGeometry x="552" y="326" width="120" height="22" as="geometry" />
        </mxCell>
        <mxCell id="SEukUoHjLpkUjH1Gkkpn-35" value="&lt;font style=&quot;font-size: 12px;&quot;&gt;远程&amp;nbsp;DataRegion4&lt;/font&gt;" style="rounded=1;whiteSpace=wrap;html=1;fontSize=16;fillColor=#dae8fc;strokeColor=#6c8ebf;" parent="1" vertex="1">
          <mxGeometry x="552" y="354.5" width="120" height="22" as="geometry" />
        </mxCell>
        <mxCell id="SEukUoHjLpkUjH1Gkkpn-40" value="&lt;b&gt;&lt;font&gt;异步发送&lt;/font&gt;&lt;/b&gt;" style="text;html=1;align=center;verticalAlign=middle;resizable=0;points=[];autosize=1;strokeColor=none;fillColor=none;fontSize=12;fontColor=default;" parent="1" vertex="1">
          <mxGeometry x="482" y="380" width="66" height="26" as="geometry" />
        </mxCell>
      </root>
    </mxGraphModel>
  </diagram>
</mxfile>
